<mxfile host="app.diagrams.net" modified="2023-10-31T19:07:08.803Z" agent="Mozilla/5.0 (Windows NT 10.0; Win64; x64) AppleWebKit/537.36 (KHTML, like Gecko) Chrome/118.0.0.0 Safari/537.36" etag="izsfLF1g_XiOhIyabl18" version="22.0.8" type="device">
  <diagram name="1 oldal" id="z8recYyG7N32adDt-WPR">
    <mxGraphModel dx="1500" dy="830" grid="1" gridSize="10" guides="1" tooltips="1" connect="1" arrows="1" fold="1" page="1" pageScale="1" pageWidth="827" pageHeight="1169" math="0" shadow="0">
      <root>
        <mxCell id="0" />
        <mxCell id="1" parent="0" />
        <mxCell id="rj7Q8CsbbbSVXyxZb8OY-9" style="edgeStyle=orthogonalEdgeStyle;rounded=0;orthogonalLoop=1;jettySize=auto;html=1;entryX=0;entryY=0.5;entryDx=0;entryDy=0;" edge="1" parent="1" source="rj7Q8CsbbbSVXyxZb8OY-1" target="rj7Q8CsbbbSVXyxZb8OY-4">
          <mxGeometry relative="1" as="geometry">
            <Array as="points">
              <mxPoint x="140" y="360" />
              <mxPoint x="140" y="570" />
            </Array>
          </mxGeometry>
        </mxCell>
        <mxCell id="rj7Q8CsbbbSVXyxZb8OY-11" style="edgeStyle=orthogonalEdgeStyle;rounded=0;orthogonalLoop=1;jettySize=auto;html=1;entryX=0;entryY=0.5;entryDx=0;entryDy=0;" edge="1" parent="1" source="rj7Q8CsbbbSVXyxZb8OY-1" target="rj7Q8CsbbbSVXyxZb8OY-7">
          <mxGeometry relative="1" as="geometry">
            <Array as="points">
              <mxPoint x="90" y="805" />
            </Array>
          </mxGeometry>
        </mxCell>
        <mxCell id="rj7Q8CsbbbSVXyxZb8OY-12" style="edgeStyle=orthogonalEdgeStyle;rounded=0;orthogonalLoop=1;jettySize=auto;html=1;" edge="1" parent="1" source="rj7Q8CsbbbSVXyxZb8OY-1" target="rj7Q8CsbbbSVXyxZb8OY-8">
          <mxGeometry relative="1" as="geometry">
            <Array as="points">
              <mxPoint x="75" y="920" />
            </Array>
          </mxGeometry>
        </mxCell>
        <mxCell id="rj7Q8CsbbbSVXyxZb8OY-15" style="edgeStyle=orthogonalEdgeStyle;rounded=0;orthogonalLoop=1;jettySize=auto;html=1;exitX=0.25;exitY=0.1;exitDx=0;exitDy=0;exitPerimeter=0;entryX=0;entryY=0.5;entryDx=0;entryDy=0;" edge="1" parent="1" source="rj7Q8CsbbbSVXyxZb8OY-1" target="rj7Q8CsbbbSVXyxZb8OY-14">
          <mxGeometry relative="1" as="geometry">
            <Array as="points">
              <mxPoint x="68" y="65" />
            </Array>
          </mxGeometry>
        </mxCell>
        <mxCell id="rj7Q8CsbbbSVXyxZb8OY-18" style="edgeStyle=orthogonalEdgeStyle;rounded=0;orthogonalLoop=1;jettySize=auto;html=1;exitX=0.5;exitY=0;exitDx=0;exitDy=0;exitPerimeter=0;entryX=0;entryY=0.5;entryDx=0;entryDy=0;" edge="1" parent="1" source="rj7Q8CsbbbSVXyxZb8OY-1" target="rj7Q8CsbbbSVXyxZb8OY-17">
          <mxGeometry relative="1" as="geometry" />
        </mxCell>
        <mxCell id="rj7Q8CsbbbSVXyxZb8OY-28" style="edgeStyle=orthogonalEdgeStyle;rounded=0;orthogonalLoop=1;jettySize=auto;html=1;exitX=0;exitY=1;exitDx=0;exitDy=0;exitPerimeter=0;entryX=0;entryY=0.5;entryDx=0;entryDy=0;" edge="1" parent="1" source="rj7Q8CsbbbSVXyxZb8OY-1" target="rj7Q8CsbbbSVXyxZb8OY-27">
          <mxGeometry relative="1" as="geometry" />
        </mxCell>
        <mxCell id="rj7Q8CsbbbSVXyxZb8OY-29" style="edgeStyle=orthogonalEdgeStyle;rounded=0;orthogonalLoop=1;jettySize=auto;html=1;exitX=0.75;exitY=0.1;exitDx=0;exitDy=0;exitPerimeter=0;entryX=0;entryY=0.5;entryDx=0;entryDy=0;" edge="1" parent="1" source="rj7Q8CsbbbSVXyxZb8OY-1" target="rj7Q8CsbbbSVXyxZb8OY-21">
          <mxGeometry relative="1" as="geometry">
            <Array as="points">
              <mxPoint x="83" y="275" />
            </Array>
          </mxGeometry>
        </mxCell>
        <mxCell id="rj7Q8CsbbbSVXyxZb8OY-30" style="edgeStyle=orthogonalEdgeStyle;rounded=0;orthogonalLoop=1;jettySize=auto;html=1;exitX=0.75;exitY=0.1;exitDx=0;exitDy=0;exitPerimeter=0;" edge="1" parent="1" source="rj7Q8CsbbbSVXyxZb8OY-1" target="rj7Q8CsbbbSVXyxZb8OY-25">
          <mxGeometry relative="1" as="geometry" />
        </mxCell>
        <mxCell id="rj7Q8CsbbbSVXyxZb8OY-1" value="Transport_Administrator" style="shape=umlActor;verticalLabelPosition=bottom;verticalAlign=top;html=1;outlineConnect=0;" vertex="1" parent="1">
          <mxGeometry x="60" y="340" width="30" height="60" as="geometry" />
        </mxCell>
        <mxCell id="rj7Q8CsbbbSVXyxZb8OY-4" value="Registering a new employee" style="ellipse;whiteSpace=wrap;html=1;" vertex="1" parent="1">
          <mxGeometry x="354" y="535" width="140" height="70" as="geometry" />
        </mxCell>
        <mxCell id="rj7Q8CsbbbSVXyxZb8OY-6" value="Create a new transport plan" style="ellipse;whiteSpace=wrap;html=1;" vertex="1" parent="1">
          <mxGeometry x="354" y="655" width="140" height="70" as="geometry" />
        </mxCell>
        <mxCell id="rj7Q8CsbbbSVXyxZb8OY-7" value="Making a schedule" style="ellipse;whiteSpace=wrap;html=1;" vertex="1" parent="1">
          <mxGeometry x="354" y="770" width="140" height="70" as="geometry" />
        </mxCell>
        <mxCell id="rj7Q8CsbbbSVXyxZb8OY-8" value="Accepting/refusing a request" style="ellipse;whiteSpace=wrap;html=1;" vertex="1" parent="1">
          <mxGeometry x="354" y="890" width="140" height="70" as="geometry" />
        </mxCell>
        <mxCell id="rj7Q8CsbbbSVXyxZb8OY-10" style="edgeStyle=orthogonalEdgeStyle;rounded=0;orthogonalLoop=1;jettySize=auto;html=1;entryX=0;entryY=0.5;entryDx=0;entryDy=0;" edge="1" parent="1" source="rj7Q8CsbbbSVXyxZb8OY-1" target="rj7Q8CsbbbSVXyxZb8OY-6">
          <mxGeometry relative="1" as="geometry">
            <Array as="points">
              <mxPoint x="110" y="370" />
              <mxPoint x="110" y="690" />
            </Array>
          </mxGeometry>
        </mxCell>
        <mxCell id="rj7Q8CsbbbSVXyxZb8OY-16" style="edgeStyle=orthogonalEdgeStyle;rounded=0;orthogonalLoop=1;jettySize=auto;html=1;exitX=0.75;exitY=0.1;exitDx=0;exitDy=0;exitPerimeter=0;" edge="1" parent="1" source="rj7Q8CsbbbSVXyxZb8OY-13" target="rj7Q8CsbbbSVXyxZb8OY-14">
          <mxGeometry relative="1" as="geometry">
            <Array as="points">
              <mxPoint x="1292" y="65" />
            </Array>
          </mxGeometry>
        </mxCell>
        <mxCell id="rj7Q8CsbbbSVXyxZb8OY-20" style="edgeStyle=orthogonalEdgeStyle;rounded=0;orthogonalLoop=1;jettySize=auto;html=1;exitX=0.25;exitY=0.1;exitDx=0;exitDy=0;exitPerimeter=0;entryX=1;entryY=0.5;entryDx=0;entryDy=0;" edge="1" parent="1" source="rj7Q8CsbbbSVXyxZb8OY-13" target="rj7Q8CsbbbSVXyxZb8OY-17">
          <mxGeometry relative="1" as="geometry">
            <Array as="points">
              <mxPoint x="1260" y="346" />
              <mxPoint x="1260" y="165" />
            </Array>
          </mxGeometry>
        </mxCell>
        <mxCell id="rj7Q8CsbbbSVXyxZb8OY-31" style="edgeStyle=orthogonalEdgeStyle;rounded=0;orthogonalLoop=1;jettySize=auto;html=1;exitX=0;exitY=0.3333333333333333;exitDx=0;exitDy=0;exitPerimeter=0;entryX=1;entryY=0.5;entryDx=0;entryDy=0;" edge="1" parent="1" source="rj7Q8CsbbbSVXyxZb8OY-13" target="rj7Q8CsbbbSVXyxZb8OY-21">
          <mxGeometry relative="1" as="geometry">
            <Array as="points">
              <mxPoint x="1240" y="360" />
              <mxPoint x="1240" y="275" />
            </Array>
          </mxGeometry>
        </mxCell>
        <mxCell id="rj7Q8CsbbbSVXyxZb8OY-32" style="edgeStyle=orthogonalEdgeStyle;rounded=0;orthogonalLoop=1;jettySize=auto;html=1;exitX=0.5;exitY=0.5;exitDx=0;exitDy=0;exitPerimeter=0;" edge="1" parent="1" source="rj7Q8CsbbbSVXyxZb8OY-13" target="rj7Q8CsbbbSVXyxZb8OY-25">
          <mxGeometry relative="1" as="geometry" />
        </mxCell>
        <mxCell id="rj7Q8CsbbbSVXyxZb8OY-33" style="edgeStyle=orthogonalEdgeStyle;rounded=0;orthogonalLoop=1;jettySize=auto;html=1;exitX=0;exitY=1;exitDx=0;exitDy=0;exitPerimeter=0;" edge="1" parent="1" source="rj7Q8CsbbbSVXyxZb8OY-13" target="rj7Q8CsbbbSVXyxZb8OY-22">
          <mxGeometry relative="1" as="geometry">
            <Array as="points">
              <mxPoint x="1270" y="390" />
              <mxPoint x="1080" y="390" />
            </Array>
          </mxGeometry>
        </mxCell>
        <mxCell id="rj7Q8CsbbbSVXyxZb8OY-34" style="edgeStyle=orthogonalEdgeStyle;rounded=0;orthogonalLoop=1;jettySize=auto;html=1;exitX=0;exitY=1;exitDx=0;exitDy=0;exitPerimeter=0;entryX=1;entryY=0.5;entryDx=0;entryDy=0;" edge="1" parent="1" source="rj7Q8CsbbbSVXyxZb8OY-13" target="rj7Q8CsbbbSVXyxZb8OY-23">
          <mxGeometry relative="1" as="geometry">
            <Array as="points">
              <mxPoint x="1250" y="400" />
              <mxPoint x="1250" y="420" />
              <mxPoint x="1160" y="420" />
              <mxPoint x="1160" y="690" />
            </Array>
          </mxGeometry>
        </mxCell>
        <mxCell id="rj7Q8CsbbbSVXyxZb8OY-35" style="edgeStyle=orthogonalEdgeStyle;rounded=0;orthogonalLoop=1;jettySize=auto;html=1;entryX=1;entryY=0.5;entryDx=0;entryDy=0;" edge="1" parent="1" source="rj7Q8CsbbbSVXyxZb8OY-13" target="rj7Q8CsbbbSVXyxZb8OY-24">
          <mxGeometry relative="1" as="geometry">
            <Array as="points">
              <mxPoint x="1320" y="400" />
              <mxPoint x="1320" y="805" />
            </Array>
          </mxGeometry>
        </mxCell>
        <mxCell id="rj7Q8CsbbbSVXyxZb8OY-36" style="edgeStyle=orthogonalEdgeStyle;rounded=0;orthogonalLoop=1;jettySize=auto;html=1;exitX=0.5;exitY=0.5;exitDx=0;exitDy=0;exitPerimeter=0;entryX=1;entryY=0.5;entryDx=0;entryDy=0;" edge="1" parent="1" source="rj7Q8CsbbbSVXyxZb8OY-13" target="rj7Q8CsbbbSVXyxZb8OY-26">
          <mxGeometry relative="1" as="geometry">
            <Array as="points">
              <mxPoint x="1300" y="370" />
              <mxPoint x="1300" y="380" />
              <mxPoint x="1340" y="380" />
              <mxPoint x="1340" y="915" />
            </Array>
          </mxGeometry>
        </mxCell>
        <mxCell id="rj7Q8CsbbbSVXyxZb8OY-13" value="Driver" style="shape=umlActor;verticalLabelPosition=bottom;verticalAlign=top;html=1;" vertex="1" parent="1">
          <mxGeometry x="1270" y="340" width="30" height="60" as="geometry" />
        </mxCell>
        <mxCell id="rj7Q8CsbbbSVXyxZb8OY-14" value="Login" style="ellipse;whiteSpace=wrap;html=1;" vertex="1" parent="1">
          <mxGeometry x="670" y="30" width="140" height="70" as="geometry" />
        </mxCell>
        <mxCell id="rj7Q8CsbbbSVXyxZb8OY-17" value="Change password" style="ellipse;whiteSpace=wrap;html=1;" vertex="1" parent="1">
          <mxGeometry x="670" y="130" width="140" height="70" as="geometry" />
        </mxCell>
        <mxCell id="rj7Q8CsbbbSVXyxZb8OY-21" value="Modifying own data" style="ellipse;whiteSpace=wrap;html=1;" vertex="1" parent="1">
          <mxGeometry x="670" y="240" width="140" height="70" as="geometry" />
        </mxCell>
        <mxCell id="rj7Q8CsbbbSVXyxZb8OY-22" value="Start a transport" style="ellipse;whiteSpace=wrap;html=1;" vertex="1" parent="1">
          <mxGeometry x="960" y="535" width="140" height="70" as="geometry" />
        </mxCell>
        <mxCell id="rj7Q8CsbbbSVXyxZb8OY-23" value="End a transport" style="ellipse;whiteSpace=wrap;html=1;" vertex="1" parent="1">
          <mxGeometry x="960" y="655" width="140" height="70" as="geometry" />
        </mxCell>
        <mxCell id="rj7Q8CsbbbSVXyxZb8OY-24" value="Add resting point to transport plan" style="ellipse;whiteSpace=wrap;html=1;" vertex="1" parent="1">
          <mxGeometry x="960" y="770" width="140" height="70" as="geometry" />
        </mxCell>
        <mxCell id="rj7Q8CsbbbSVXyxZb8OY-25" value="Add docking point to transport plan" style="ellipse;whiteSpace=wrap;html=1;" vertex="1" parent="1">
          <mxGeometry x="670" y="350" width="140" height="70" as="geometry" />
        </mxCell>
        <mxCell id="rj7Q8CsbbbSVXyxZb8OY-26" value="Create a holiday request" style="ellipse;whiteSpace=wrap;html=1;" vertex="1" parent="1">
          <mxGeometry x="960" y="880" width="140" height="70" as="geometry" />
        </mxCell>
        <mxCell id="rj7Q8CsbbbSVXyxZb8OY-27" value="Delete an employee" style="ellipse;whiteSpace=wrap;html=1;" vertex="1" parent="1">
          <mxGeometry x="354" y="1020" width="140" height="70" as="geometry" />
        </mxCell>
      </root>
    </mxGraphModel>
  </diagram>
</mxfile>
